<svg width="52" height="56" viewBox="0 0 52 56" fill="none" xmlns="http://www.w3.org/2000/svg">
<g clip-path="url(#clip0_27_283)">
<path d="M1.88727 32.6369L10.2118 41.7602C10.4118 41.9789 10.6497 42.1525 10.9118 42.271C11.1739 42.3895 11.4551 42.4504 11.739 42.4504C12.023 42.4504 12.3042 42.3895 12.5663 42.271C12.8284 42.1525 13.0663 41.9789 13.2663 41.7602C13.6669 41.3231 13.8918 40.7317 13.8918 40.1152C13.8918 39.4988 13.6669 38.9074 13.2663 38.4702L5.60858 30.0936L49.4683 30.0936C50.0388 30.0936 50.5859 29.8477 50.9893 29.4102C51.3927 28.9726 51.6194 28.3791 51.6194 27.7602C51.6194 27.1414 51.3927 26.5479 50.9893 26.1103C50.5859 25.6727 50.0388 25.4269 49.4683 25.4269L5.47951 25.4269L13.2663 17.0036C13.4679 16.7867 13.6279 16.5286 13.7371 16.2443C13.8463 15.9599 13.9026 15.6549 13.9026 15.3469C13.9026 15.0389 13.8463 14.7339 13.7371 14.4496C13.6279 14.1652 13.4679 13.9072 13.2663 13.6902C13.0663 13.4715 12.8284 13.298 12.5663 13.1795C12.3042 13.061 12.023 13 11.739 13C11.4551 13 11.1739 13.061 10.9118 13.1795C10.6497 13.298 10.4118 13.4715 10.2118 13.6902L1.88727 22.7436C0.67881 24.0561 3.43319e-05 25.8352 3.43319e-05 27.6902C3.43319e-05 29.5452 0.67881 31.3244 1.88727 32.6369Z" fill="#98B398"/>
</g>
<defs>
<clipPath id="clip0_27_283">
<rect width="51.625" height="56" fill="white" transform="matrix(-1 0 0 -1 51.625 56)"/>
</clipPath>
</defs>
</svg>
