<svg width="64" height="64" viewBox="0 0 64 64" fill="none" xmlns="http://www.w3.org/2000/svg">
<path d="M55.9999 61.3333C55.9999 62.808 54.8053 64 53.3333 64C51.8613 64 50.6666 62.808 50.6666 61.3333C50.6666 55.4507 45.8826 50.6667 39.9999 50.6667H23.9999C18.1173 50.6667 13.3333 55.4507 13.3333 61.3333C13.3333 62.808 12.1386 64 10.6666 64C9.19459 64 7.99992 62.808 7.99992 61.3333C7.99992 52.5093 15.1759 45.3333 23.9999 45.3333H39.9999C48.8239 45.3333 55.9999 52.5093 55.9999 61.3333ZM58.6666 20V25.3333C58.6666 27.5387 56.8719 29.3333 54.6666 29.3333H53.3333C53.3333 35.216 48.5493 40 42.6666 40H21.3333C15.4506 40 10.6666 35.216 10.6666 29.3333H9.33325C7.12792 29.3333 5.33325 27.5387 5.33325 25.3333V20C5.33325 17.7947 7.12792 16 9.33325 16H10.6666C10.6666 10.1173 15.4506 5.33333 21.3333 5.33333H29.3333V2.66667C29.3333 1.192 30.5279 0 31.9999 0C33.4719 0 34.6666 1.192 34.6666 2.66667V5.33333H42.6666C48.5493 5.33333 53.3333 10.1173 53.3333 16H54.6666C56.8719 16 58.6666 17.7947 58.6666 20ZM47.9999 16C47.9999 13.0587 45.6079 10.6667 42.6666 10.6667H21.3333C18.3919 10.6667 15.9999 13.0587 15.9999 16V29.3333C15.9999 32.2747 18.3919 34.6667 21.3333 34.6667H42.6666C45.6079 34.6667 47.9999 32.2747 47.9999 29.3333V16ZM25.3333 18.6667C23.1253 18.6667 21.3333 20.4587 21.3333 22.6667C21.3333 24.8747 23.1253 26.6667 25.3333 26.6667C27.5413 26.6667 29.3333 24.8747 29.3333 22.6667C29.3333 20.4587 27.5413 18.6667 25.3333 18.6667ZM38.6666 18.6667C36.4586 18.6667 34.6666 20.4587 34.6666 22.6667C34.6666 24.8747 36.4586 26.6667 38.6666 26.6667C40.8746 26.6667 42.6666 24.8747 42.6666 22.6667C42.6666 20.4587 40.8746 18.6667 38.6666 18.6667Z" fill="white"/>
</svg>
