<svg width="64" height="64" viewBox="0 0 64 64" fill="none" xmlns="http://www.w3.org/2000/svg">
<g clip-path="url(#clip0_1_148)">
<path d="M18.6667 0H10.6667C7.83769 0 5.12458 1.12381 3.12419 3.12419C1.12381 5.12458 0 7.83769 0 10.6667L0 18.6667C0 21.4956 1.12381 24.2088 3.12419 26.2091C5.12458 28.2095 7.83769 29.3333 10.6667 29.3333H18.6667C21.4956 29.3333 24.2088 28.2095 26.2091 26.2091C28.2095 24.2088 29.3333 21.4956 29.3333 18.6667V10.6667C29.3333 7.83769 28.2095 5.12458 26.2091 3.12419C24.2088 1.12381 21.4956 0 18.6667 0ZM24 18.6667C24 20.0812 23.4381 21.4377 22.4379 22.4379C21.4377 23.4381 20.0812 24 18.6667 24H10.6667C9.25218 24 7.89562 23.4381 6.89543 22.4379C5.89524 21.4377 5.33333 20.0812 5.33333 18.6667V10.6667C5.33333 9.25218 5.89524 7.89562 6.89543 6.89543C7.89562 5.89524 9.25218 5.33333 10.6667 5.33333H18.6667C20.0812 5.33333 21.4377 5.89524 22.4379 6.89543C23.4381 7.89562 24 9.25218 24 10.6667V18.6667Z" fill="white"/>
<path d="M53.3334 -3.8147e-06H45.3334C42.5044 -3.8147e-06 39.7913 1.1238 37.7909 3.12419C35.7906 5.12458 34.6667 7.83769 34.6667 10.6667V18.6667C34.6667 21.4956 35.7906 24.2087 37.7909 26.2091C39.7913 28.2095 42.5044 29.3333 45.3334 29.3333H53.3334C56.1624 29.3333 58.8755 28.2095 60.8759 26.2091C62.8763 24.2087 64.0001 21.4956 64.0001 18.6667V10.6667C64.0001 7.83769 62.8763 5.12458 60.8759 3.12419C58.8755 1.1238 56.1624 -3.8147e-06 53.3334 -3.8147e-06ZM58.6667 18.6667C58.6667 20.0812 58.1048 21.4377 57.1047 22.4379C56.1045 23.4381 54.7479 24 53.3334 24H45.3334C43.9189 24 42.5624 23.4381 41.5622 22.4379C40.562 21.4377 40.0001 20.0812 40.0001 18.6667V10.6667C40.0001 9.25218 40.562 7.89562 41.5622 6.89543C42.5624 5.89523 43.9189 5.33333 45.3334 5.33333H53.3334C54.7479 5.33333 56.1045 5.89523 57.1047 6.89543C58.1048 7.89562 58.6667 9.25218 58.6667 10.6667V18.6667Z" fill="white"/>
<path d="M18.6667 34.6667H10.6667C7.83769 34.6667 5.12458 35.7905 3.12419 37.7909C1.12381 39.7912 0 42.5044 0 45.3333L0 53.3333C0 56.1623 1.12381 58.8754 3.12419 60.8758C5.12458 62.8762 7.83769 64 10.6667 64H18.6667C21.4956 64 24.2088 62.8762 26.2091 60.8758C28.2095 58.8754 29.3333 56.1623 29.3333 53.3333V45.3333C29.3333 42.5044 28.2095 39.7912 26.2091 37.7909C24.2088 35.7905 21.4956 34.6667 18.6667 34.6667ZM24 53.3333C24 54.7478 23.4381 56.1044 22.4379 57.1046C21.4377 58.1048 20.0812 58.6667 18.6667 58.6667H10.6667C9.25218 58.6667 7.89562 58.1048 6.89543 57.1046C5.89524 56.1044 5.33333 54.7478 5.33333 53.3333V45.3333C5.33333 43.9188 5.89524 42.5623 6.89543 41.5621C7.89562 40.5619 9.25218 40 10.6667 40H18.6667C20.0812 40 21.4377 40.5619 22.4379 41.5621C23.4381 42.5623 24 43.9188 24 45.3333V53.3333Z" fill="white"/>
<path d="M53.3334 34.6667H45.3334C42.5044 34.6667 39.7913 35.7905 37.7909 37.7909C35.7906 39.7912 34.6667 42.5044 34.6667 45.3333V53.3333C34.6667 56.1623 35.7906 58.8754 37.7909 60.8758C39.7913 62.8762 42.5044 64 45.3334 64H53.3334C56.1624 64 58.8755 62.8762 60.8759 60.8758C62.8763 58.8754 64.0001 56.1623 64.0001 53.3333V45.3333C64.0001 42.5044 62.8763 39.7912 60.8759 37.7909C58.8755 35.7905 56.1624 34.6667 53.3334 34.6667ZM58.6667 53.3333C58.6667 54.7478 58.1048 56.1044 57.1047 57.1046C56.1045 58.1048 54.7479 58.6667 53.3334 58.6667H45.3334C43.9189 58.6667 42.5624 58.1048 41.5622 57.1046C40.562 56.1044 40.0001 54.7478 40.0001 53.3333V45.3333C40.0001 43.9188 40.562 42.5623 41.5622 41.5621C42.5624 40.5619 43.9189 40 45.3334 40H53.3334C54.7479 40 56.1045 40.5619 57.1047 41.5621C58.1048 42.5623 58.6667 43.9188 58.6667 45.3333V53.3333Z" fill="white"/>
</g>
<defs>
<clipPath id="clip0_1_148">
<rect width="64" height="64" fill="white"/>
</clipPath>
</defs>
</svg>
