<svg width="77" height="77" viewBox="0 0 77 77" fill="none" xmlns="http://www.w3.org/2000/svg">
<path d="M73.75 17.4918C73.6602 16.9239 72.749 11.8227 69.053 8.09782C65.341 4.46599 60.2205 3.56765 59.6494 3.47782C58.889 3.3527 58.1126 3.51311 57.4613 3.91736C57.2335 4.05853 53.8872 6.15357 47.2812 11.7393C50.6789 12.9392 55.0711 15.0214 58.6323 18.5057C62.2064 22.0027 64.3432 26.3051 65.5688 29.6418C71.0871 23.193 73.1629 19.9269 73.3008 19.7024C73.7115 19.0447 73.8719 18.2586 73.75 17.4918Z" fill="#566755"/>
<path d="M41.548 16.7571C38.1054 19.8628 34.0982 23.6358 29.5103 28.1916C10.0582 47.5058 4.95691 55.2283 4.74837 55.5459C4.45641 55.9951 4.27996 56.5116 4.23825 57.0442L3.21479 70.1053C3.14421 71.0421 3.48108 71.9597 4.14521 72.6239C4.74837 73.227 5.5665 73.5639 6.41671 73.5639C6.49691 73.5639 6.58033 73.5639 6.66375 73.5543L19.8211 72.5404C20.3505 72.4987 20.8606 72.3287 21.3066 72.0431C21.6274 71.8378 29.4012 66.7719 48.8501 47.4609C53.5407 42.8024 57.41 38.7471 60.5766 35.2789C60.0921 33.1966 58.4013 27.2548 54.1439 23.0936C49.8255 18.8682 43.6141 17.2127 41.548 16.7571Z" fill="#566755"/>
</svg>
