<svg width="64" height="64" viewBox="0 0 64 64" fill="none" xmlns="http://www.w3.org/2000/svg">
<g clip-path="url(#clip0_1_146)">
<path d="M61.656 24.184L41.4294 3.95467C38.926 1.45864 35.5351 0.0569992 32 0.0569992C28.4649 0.0569992 25.0741 1.45864 22.5707 3.95467L2.34403 24.184C1.5985 24.9248 1.00742 25.8061 0.605052 26.777C0.202686 27.7479 -0.00296107 28.789 3.2212e-05 29.84V56.0187C3.2212e-05 58.1404 0.842887 60.1752 2.34318 61.6755C3.84347 63.1758 5.8783 64.0187 8.00003 64.0187H56C58.1218 64.0187 60.1566 63.1758 61.6569 61.6755C63.1572 60.1752 64 58.1404 64 56.0187V29.84C64.003 28.789 63.7974 27.7479 63.395 26.777C62.9927 25.8061 62.4016 24.9248 61.656 24.184ZM40 58.6853H24V48.1947C24 46.0729 24.8429 44.0381 26.3432 42.5378C27.8435 41.0375 29.8783 40.1947 32 40.1947C34.1218 40.1947 36.1566 41.0375 37.6569 42.5378C39.1572 44.0381 40 46.0729 40 48.1947V58.6853ZM58.6667 56.0187C58.6667 56.7259 58.3858 57.4042 57.8857 57.9043C57.3856 58.4044 56.7073 58.6853 56 58.6853H45.3334V48.1947C45.3334 44.6584 43.9286 41.2671 41.4281 38.7666C38.9276 36.2661 35.5363 34.8613 32 34.8613C28.4638 34.8613 25.0724 36.2661 22.5719 38.7666C20.0715 41.2671 18.6667 44.6584 18.6667 48.1947V58.6853H8.00003C7.29279 58.6853 6.61451 58.4044 6.11442 57.9043C5.61432 57.4042 5.33337 56.7259 5.33337 56.0187V29.84C5.33584 29.1333 5.61654 28.456 6.1147 27.9547L26.3414 7.73334C27.8446 6.23715 29.8791 5.39718 32 5.39718C34.1209 5.39718 36.1555 6.23715 37.6587 7.73334L57.8854 27.9627C58.3816 28.462 58.6621 29.1361 58.6667 29.84V56.0187Z" fill="white"/>
</g>
<defs>
<clipPath id="clip0_1_146">
<rect width="64" height="64" fill="white"/>
</clipPath>
</defs>
</svg>
