<svg width="64" height="64" viewBox="0 0 64 64" fill="none" xmlns="http://www.w3.org/2000/svg">
<path d="M56 2.66666H8C5.87827 2.66666 3.84344 3.50952 2.34315 5.00981C0.842855 6.5101 0 8.54493 0 10.6667L0 61.3333H64V10.6667C64 8.54493 63.1571 6.5101 61.6569 5.00981C60.1566 3.50952 58.1217 2.66666 56 2.66666ZM8 8H56C56.7072 8 57.3855 8.28095 57.8856 8.78105C58.3857 9.28114 58.6667 9.95942 58.6667 10.6667V12.4453L37.6587 33.456C36.1558 34.9528 34.1211 35.7932 32 35.7932C29.8789 35.7932 27.8442 34.9528 26.3413 33.456L5.33333 12.4453V10.6667C5.33333 9.95942 5.61428 9.28114 6.11438 8.78105C6.61448 8.28095 7.29276 8 8 8ZM5.33333 56V20L22.5707 37.2267C25.0737 39.7233 28.4647 41.1254 32 41.1254C35.5353 41.1254 38.9263 39.7233 41.4293 37.2267L58.6667 20V56H5.33333Z" fill="white"/>
</svg>
