<svg width="40" height="40" viewBox="0 0 40 40" fill="none" xmlns="http://www.w3.org/2000/svg">
<g clip-path="url(#clip0_1_160)">
<path d="M39.2685 35.7422L31.5266 27.997C37.3195 20.2557 35.74 9.28408 27.9987 3.49121C20.2574 -2.30166 9.28573 -0.72213 3.49286 7.01916C-2.30001 14.7604 -0.720482 25.7321 7.02081 31.525C13.2393 36.1783 21.7802 36.1783 27.9987 31.525L35.7439 39.2702C36.7172 40.2435 38.2952 40.2435 39.2685 39.2702C40.2418 38.2968 40.2418 36.7188 39.2685 35.7456L39.2685 35.7422ZM17.5743 30.0301C10.6942 30.0301 5.11684 24.4527 5.11684 17.5726C5.11684 10.6925 10.6942 5.11519 17.5743 5.11519C24.4544 5.11519 30.0317 10.6925 30.0317 17.5726C30.0244 24.4496 24.4513 30.0228 17.5743 30.0301Z" fill="#888888"/>
</g>
<defs>
<clipPath id="clip0_1_160">
<rect width="40" height="40" fill="white"/>
</clipPath>
</defs>
</svg>
